<svg xmlns="http://www.w3.org/2000/svg" viewBox="504.64 182.84 109.85 110.26" fill="none">
  <path d="M566.74 269.75C566.74 269.75 581.12 279.71 596.81 277.70C612.50 275.68 608.87 258.29 608.87 258.29C608.87 258.29 604.75 239.28 590.87 231.94C590.87 231.94 588.81 238.27 575.39 248.03C568.85 252.77 564.37 255.71 561.48 257.48C558.44 259.35 557.18 259.91 557.18 259.91C557.18 259.91 561.00 261.86 566.74 269.75" fill="#f1e4d8"/>
  <path d="M567.25 269.21C568.55 270.08 582.17 278.83 596.71 276.97C600.82 276.44 603.90 274.77 605.88 271.99C609.78 266.52 608.17 258.52 608.16 258.44C608.12 258.26 604.08 240.32 591.23 232.97C590.23 235.00 586.71 240.70 575.82 248.62C570.34 252.60 565.65 255.79 561.87 258.11C560.41 259.00 559.36 259.60 558.65 259.98C560.21 261.12 563.28 263.76 567.25 269.21M592.48 278.70C578.55 278.70 566.86 270.73 566.32 270.35L566.22 270.28L566.14 270.18C560.62 262.57 556.88 260.58 556.85 260.56L555.50 259.86L556.88 259.24C556.90 259.23 558.16 258.66 561.10 256.86C563.68 255.28 568.18 252.36 574.95 247.43C587.95 237.99 590.16 231.77 590.18 231.71L590.45 230.89L591.22 231.29C605.24 238.70 609.42 257.34 609.59 258.13C609.67 258.49 611.34 266.85 607.08 272.84C604.85 275.97 601.43 277.84 596.90 278.42C595.41 278.61 593.93 278.70 592.48 278.70" fill="#66172d"/>
  <path d="M562.21 258.49C562.21 258.49 566.94 266.33 578.40 271.06C589.87 275.78 597.11 273.57 599.93 270.76C602.74 267.94 603.55 262.71 600.33 254.77C597.11 246.82 591.58 240.58 587.46 236.96L573.78 244.41L561.41 256.78L562.21 258.49" fill="#b79480"/>
  <path d="M595.30 254.06C595.30 262.23 588.68 268.85 580.51 268.85C572.35 268.85 565.73 262.23 565.73 254.06C565.73 245.90 572.35 239.28 580.51 239.28C588.68 239.28 595.30 245.90 595.30 254.06" fill="#f1e4d8"/>
  <path d="M590.87 254.06C590.87 259.78 586.24 264.42 580.51 264.42C574.79 264.42 570.16 259.78 570.16 254.06C570.16 248.34 574.79 243.70 580.51 243.70C586.24 243.70 590.87 248.34 590.87 254.06" fill="#b79480"/>
  <path d="M586.05 254.06C586.05 257.12 583.57 259.59 580.52 259.59C577.46 259.59 574.98 257.12 574.98 254.06C574.98 251.01 577.46 248.53 580.52 248.53C583.57 248.53 586.05 251.01 586.05 254.06" fill="#66172d"/>
  <path d="M545.70 259.43C545.58 259.38 533.51 254.57 522.57 243.62C511.94 232.99 508.26 221.28 507.39 217.94C507.12 216.92 506.64 214.37 507.90 212.68C508.61 211.74 509.72 211.23 511.20 211.19C512.62 211.14 513.82 211.76 514.46 212.90C515.12 214.06 515.09 215.56 514.40 216.63C513.82 217.53 512.87 217.99 511.76 217.89C510.70 217.79 510.18 217.29 509.92 216.88C509.26 215.82 509.77 214.43 509.83 214.27L511.21 214.80L510.52 214.54L511.21 214.80C511.11 215.08 510.96 215.76 511.18 216.10C511.29 216.28 511.53 216.38 511.89 216.42C512.45 216.47 512.88 216.27 513.16 215.83C513.55 215.23 513.56 214.30 513.18 213.62C512.92 213.17 512.36 212.62 511.25 212.66C510.22 212.69 509.52 212.99 509.09 213.57C508.18 214.77 508.65 216.94 508.82 217.57C509.67 220.81 513.24 232.21 523.61 242.58C534.33 253.29 546.12 258.00 546.24 258.05L545.70 259.43" fill="#65152d"/>
  <path d="M547.59 257.97C547.27 257.74 539.64 252.00 532.98 239.79C526.89 228.64 526.84 218.44 526.85 217.31C526.86 216.47 527.03 214.39 528.38 213.34C529.15 212.74 530.13 212.58 531.30 212.86C532.45 213.14 533.26 213.89 533.52 214.94C533.79 216.00 533.44 217.19 532.66 217.89C531.99 218.49 531.11 218.65 530.25 218.32C529.41 218.01 529.10 217.48 528.98 217.08C528.68 216.07 529.39 215.07 529.47 214.96L530.66 215.84L530.06 215.40L530.66 215.83C530.51 216.05 530.33 216.45 530.39 216.66C530.43 216.79 530.62 216.89 530.77 216.94C531.12 217.07 531.42 217.02 531.67 216.79C532.05 216.46 532.22 215.83 532.09 215.30C531.96 214.79 531.57 214.44 530.96 214.30C530.24 214.12 529.69 214.19 529.29 214.50C528.42 215.18 528.33 216.84 528.33 217.33C528.31 218.41 528.37 228.26 534.27 239.09C540.77 250.99 548.39 256.73 548.47 256.79L547.59 257.97" fill="#65152d"/>
  <path d="M549.34 255.77C549.34 255.77 542.10 239.08 538.28 216.75C534.45 194.42 541.19 185.47 552.26 185.57C563.32 185.67 585.44 199.35 591.88 213.13C598.42 227.13 586.87 239.57 577.20 246.72C565.63 255.27 561.61 257.78 558.09 259.39L557.18 259.91C557.18 259.91 554.85 257.34 549.68 256.55L549.34 255.77" fill="#f1e4d8"/>
  <path d="M550.19 255.89C554.10 256.57 556.40 258.23 557.29 259.00L557.78 258.72C561.15 257.18 565.01 254.81 576.76 246.13C585.01 240.03 597.86 227.67 591.21 213.44C584.98 200.10 563.29 186.41 552.25 186.31C552.19 186.31 552.13 186.31 552.07 186.31C547.79 186.31 544.42 187.72 542.05 190.51C537.90 195.39 536.87 204.18 539.00 216.63C542.76 238.60 549.94 255.31 550.01 255.48L550.19 255.89M557.04 260.83L556.64 260.40C556.62 260.38 554.38 258.01 549.57 257.28L549.17 257.21L548.67 256.06C548.59 255.90 541.34 239.03 537.55 216.87C535.34 203.98 536.48 194.78 540.93 189.55C543.60 186.43 547.34 184.84 552.07 184.84C552.13 184.84 552.20 184.84 552.26 184.84C563.69 184.94 586.12 199.06 592.54 212.82C599.63 228.00 586.24 240.94 577.63 247.31C565.81 256.05 561.88 258.46 558.42 260.05L557.04 260.83" fill="#66172d"/>
  <path d="M554.47 257.08C554.47 257.08 545.42 239.98 545.01 217.25C544.61 194.52 559.80 199.35 559.80 199.35C559.80 199.35 566.33 200.06 575.69 206.79C585.04 213.53 586.65 225.00 584.03 231.13C581.42 237.27 573.07 249.23 554.47 257.08" fill="#b79480"/>
  <path d="M583.13 225.50C583.13 235.61 574.93 243.80 564.83 243.80C554.72 243.80 546.52 235.61 546.52 225.50C546.52 215.39 554.72 207.20 564.83 207.20C574.93 207.20 583.13 215.39 583.13 225.50" fill="#f1e4d8"/>
  <path d="M577.00 225.50C577.00 232.22 571.55 237.67 564.83 237.67C558.11 237.67 552.66 232.22 552.66 225.50C552.66 218.78 558.11 213.33 564.83 213.33C571.55 213.33 577.00 218.78 577.00 225.50" fill="#b79480"/>
  <path d="M571.66 225.50C571.66 229.28 568.60 232.34 564.83 232.34C561.05 232.34 557.99 229.28 557.99 225.50C557.99 221.72 561.05 218.66 564.83 218.66C568.60 218.66 571.66 221.72 571.66 225.50" fill="#66172d"/>
  <path d="M574.00 291.10C574.00 291.10 566.71 268.14 548.23 263.24C548.23 263.24 543.30 262.51 543.76 258.81C544.21 255.12 549.74 255.37 553.36 257.26C556.98 259.14 570.84 267.56 574.00 291.10" fill="#65152d"/>
</svg>
