<svg xmlns="http://www.w3.org/2000/svg" viewBox="0 0 100 100" role="img" aria-label="ilona">
  <rect width="100" height="100" rx="22" fill="#66172D"/>
  <g fill="#F1E4D8" transform="translate(17.00 17.07) scale(0.6235) translate(-506.6 -185.5)">
    <path d="M549.3 255.8C549.3 255.8 542.1 239.1 538.3 216.7C534.5 194.4 541.2 185.5 552.3 185.6C563.3 185.7 585.4 199.4 591.9 213.1C598.4 227.1 586.9 239.6 577.2 246.7C565.6 255.3 561.6 257.8 558.1 259.4L557.2 259.9C557.2 259.9 554.8 257.3 549.7 256.6L549.3 255.8"/>
    <path d="M566.7 269.8C566.7 269.8 581.1 279.7 596.8 277.7C612.5 275.7 608.9 258.3 608.9 258.3C608.9 258.3 604.8 239.3 590.9 231.9C590.9 231.9 588.8 238.3 575.4 248.0C568.9 252.8 564.4 255.7 561.5 257.5C558.4 259.3 557.2 259.9 557.2 259.9C557.2 259.9 561.0 261.9 566.7 269.8"/>
    <path d="M574.0 291.1C574.0 291.1 566.7 268.1 548.2 263.2C548.2 263.2 543.3 262.5 543.8 258.8C544.2 255.1 549.7 255.4 553.4 257.3C557.0 259.1 570.8 267.6 574.0 291.1"/>
    <path d="M545.7 259.4C545.6 259.4 533.5 254.6 522.6 243.6C511.9 233.0 508.3 221.3 507.4 217.9C507.1 216.9 506.6 214.4 507.9 212.7C508.6 211.7 509.7 211.2 511.2 211.2C512.6 211.1 513.8 211.8 514.5 212.9C515.1 214.1 515.1 215.6 514.4 216.6C513.8 217.5 512.9 218.0 511.8 217.9C510.7 217.8 510.2 217.3 509.9 216.9C509.3 215.8 509.8 214.4 509.8 214.3L511.2 214.8L510.5 214.5L511.2 214.8C511.1 215.1 511.0 215.8 511.2 216.1C511.3 216.3 511.5 216.4 511.9 216.4C512.4 216.5 512.9 216.3 513.2 215.8C513.6 215.2 513.6 214.3 513.2 213.6C512.9 213.2 512.4 212.6 511.2 212.7C510.2 212.7 509.5 213.0 509.1 213.6C508.2 214.8 508.7 216.9 508.8 217.6C509.7 220.8 513.2 232.2 523.6 242.6C534.3 253.3 546.1 258.0 546.2 258.1L545.7 259.4"/>
    <path d="M547.6 258.0C547.3 257.7 539.6 252.0 533.0 239.8C526.9 228.6 526.8 218.4 526.8 217.3C526.9 216.5 527.0 214.4 528.4 213.3C529.2 212.7 530.1 212.6 531.3 212.9C532.5 213.1 533.3 213.9 533.5 214.9C533.8 216.0 533.4 217.2 532.7 217.9C532.0 218.5 531.1 218.6 530.3 218.3C529.4 218.0 529.1 217.5 529.0 217.1C528.7 216.1 529.4 215.1 529.5 215.0L530.7 215.8L530.1 215.4L530.7 215.8C530.5 216.0 530.3 216.5 530.4 216.7C530.4 216.8 530.6 216.9 530.8 216.9C531.1 217.1 531.4 217.0 531.7 216.8C532.0 216.5 532.2 215.8 532.1 215.3C532.0 214.8 531.6 214.4 531.0 214.3C530.2 214.1 529.7 214.2 529.3 214.5C528.4 215.2 528.3 216.8 528.3 217.3C528.3 218.4 528.4 228.3 534.3 239.1C540.8 251.0 548.4 256.7 548.5 256.8L547.6 258.0"/>
  </g>
</svg>
