<svg xmlns="http://www.w3.org/2000/svg" viewBox="0 0 100 100" role="img" aria-label="Ilona Clinic">
  <rect width="100" height="100" rx="22" fill="#7B1935"/>
  <g fill="#FAF8F5">
    <!-- body -->
    <path d="M50 30c-2 0-3.5 1.7-3.4 3.7l1.3 33c.05 1.3 1 2.3 2.1 2.3s2.05-1 2.1-2.3l1.3-33C53.5 31.7 52 30 50 30Z"/>
    <circle cx="50" cy="27.4" r="3.3"/>
    <!-- upper wings -->
    <path d="M49 36C36 21.5 15.5 19.5 12.5 33c-2.6 11.4 9.5 19 22.5 20 9 .7 14-4 14-9Z"/>
    <path d="M51 36c13-14.5 33.5-16.5 36.5-3 2.6 11.4-9.5 19-22.5 20-9 .7-14-4-14-9Z"/>
    <!-- lower wings -->
    <path d="M49 55c-9 3-21.5 11-19.5 23.5 1.6 9.5 14.5 2 19.5-8.5Z"/>
    <path d="M51 55c9 3 21.5 11 19.5 23.5-1.6 9.5-14.5 2-19.5-8.5Z"/>
  </g>
  <!-- antennae -->
  <g stroke="#FAF8F5" stroke-width="2.1" stroke-linecap="round" fill="none">
    <path d="M49 25.5c-3.5-7-7.5-9-11-10"/>
    <path d="M51 25.5c3.5-7 7.5-9 11-10"/>
  </g>
</svg>
