<svg xmlns="http://www.w3.org/2000/svg" xmlns:xlink="http://www.w3.org/1999/xlink" xmlns:inkscape="http://www.inkscape.org/namespaces/inkscape" version="1.1" width="353.3" height="218.00002" viewBox="0 0 353.3 218.00002">
<defs>
<clipPath id="clip_1">
<path transform="matrix(1,0,0,-1,-271.2,422.476)" d="M271.2 204.476H624.5V422.476H271.2Z" clip-rule="evenodd"/>
</clipPath>
<clipPath id="clip_2">
<path transform="matrix(1,0,0,-1,-271.2,422.476)" d="M0 595.276H841.89V0H0Z"/>
</clipPath>
</defs>
<g>
<g clip-path="url(#clip_1)">
<g clip-path="url(#clip_2)">
<path transform="matrix(1,0,0,-1,19.820099,93.9758)" d="M0 0C-4.261 0-7.771 3.509-7.771 7.771-7.771 12.031-4.261 15.667 0 15.667 4.261 15.667 7.645 12.031 7.645 7.771 7.645 3.509 4.261 0 0 0" fill="#66172d"/>
<path transform="matrix(1,0,0,-1,33.857698,170.92942)" d="M0 0C-13.161 0-20.054 6.517-20.054 19.927V67.679H-16.544C-12.659 67.679-8.648 64.671-8.648 58.78V21.557C-8.648 13.159-4.512 10.528 1.754 10.528H6.642V6.768C6.642 2.506 4.011 0 0 0" fill="#66172d"/>
<path transform="matrix(1,0,0,-1,71.83188,170.80442)" d="M0 0C-13.16 0-20.304 6.392-20.304 19.928V90.74H-16.795C-12.157 90.74-8.773 87.858-8.773 81.967V21.306C-8.773 12.909-4.512 10.528 1.755 10.528H9.149V6.768C9.149 2.131 6.142 0 0 0" fill="#66172d"/>
<path transform="matrix(1,0,0,-1,117.07648,112.90112)" d="M0 0C-10.778 0-17.922-8.773-17.922-22.685-17.922-38.101-10.402-47.876 2.757-47.876 14.037-47.876 20.178-38.352 20.178-25.192 20.178-8.648 13.16 0 0 0M1.629-58.655C-16.168-58.655-29.453-44.994-29.453-25.066-29.453-2.883-17.296 10.778 1.629 10.778 19.426 10.778 31.709-2.632 31.709-22.56 31.709-45.12 19.803-58.655 1.629-58.655" fill="#66172d"/>
<path transform="matrix(1,0,0,-1,214.96219,170.3034)" d="M0 0C-4.638 0-7.144 2.381-7.144 7.395V38.226C-7.144 52.139-12.283 57.528-24.189 57.528-34.215 57.528-39.98 51.888-39.98 38.226V0H-44.243C-48.378 0-51.261 2.507-51.261 7.77V38.477C-51.261 57.277-39.98 68.306-22.811 68.306-6.016 68.306 4.136 58.656 4.136 38.603V0Z" fill="#66172d"/>
<path transform="matrix(1,0,0,-1,274.36848,138.97)" d="M0 0H-9.149C-22.56 0-28.7-4.136-28.7-11.53-28.7-17.421-22.936-22.059-14.288-22.059-4.135-22.059 0-18.048 0-8.397ZM-14.789-32.586C-28.45-32.586-40.357-24.69-40.357-12.784-40.357 1.629-29.202 9.524-9.149 9.524H-.125V12.658C-.125 22.434-5.013 26.445-15.917 26.445-25.943 26.445-33.338 22.685-37.224 17.295H-37.85V22.81C-37.85 28.951-29.829 36.973-14.789 36.973 2.257 36.973 11.281 28.074 11.281 11.781V-9.274C11.281-22.811 4.011-32.586-14.789-32.586" fill="#66172d"/>
<path transform="matrix(1,0,0,-1,295.5365,96.95041)" d="M0 0C0 0 14.381-9.956 30.071-7.945 45.759-5.934 42.138 11.465 42.138 11.465 42.138 11.465 38.016 30.473 24.137 37.814 24.137 37.814 22.075 31.479 8.649 21.723 2.117 16.977-2.368 14.037-5.252 12.269-8.295 10.404-9.554 9.843-9.554 9.843-9.554 9.843-5.732 7.895 0 0" fill="#f1e4d8"/>
<path transform="matrix(1,0,0,-1,296.0531,96.41431)" d="M0 0C1.297-.862 14.914-9.616 29.461-7.753 33.565-7.227 36.649-5.553 38.627-2.777 42.527 2.697 40.92 10.699 40.904 10.779 40.865 10.956 36.831 28.892 23.974 36.247 22.98 34.215 19.458 28.51 8.564 20.593 3.091 16.618-1.602 13.426-5.385 11.107-6.843 10.213-7.897 9.615-8.607 9.231-7.047 8.099-3.976 5.457 0 0M25.227-9.487C11.299-9.487-.394-1.514-.935-1.14L-1.037-1.068-1.111-.967C-6.634 6.641-10.369 8.636-10.406 8.655L-11.754 9.355-10.369 9.978C-10.357 9.983-9.098 10.553-6.152 12.358-3.573 13.939 .923 16.856 7.701 21.781 20.696 31.223 22.903 37.447 22.924 37.509L23.199 38.327 23.963 37.927C37.983 30.511 42.167 11.874 42.339 11.084 42.414 10.725 44.09 2.363 39.822-3.628 37.597-6.751 34.174-8.628 29.648-9.208 28.157-9.4 26.679-9.487 25.227-9.487" fill="#66172d"/>
<path transform="matrix(1,0,0,-1,291.0111,85.6868)" d="M0 0C0 0 4.726-7.845 16.192-12.571 27.656-17.298 34.897-15.086 37.714-12.269 40.529-9.453 41.334-4.224 38.117 3.721 34.897 11.667 29.366 17.902 25.244 21.522L11.565 14.08-.805 1.71Z" fill="#b79480"/>
<path transform="matrix(1,0,0,-1,324.09797,81.261508)" d="M0 0C0-8.165-6.619-14.784-14.783-14.784-22.948-14.784-29.566-8.165-29.566 0-29.566 8.165-22.948 14.784-14.783 14.784-6.619 14.784 0 8.165 0 0" fill="#f1e4d8"/>
<path transform="matrix(1,0,0,-1,319.6737,81.261508)" d="M0 0C0-5.722-4.638-10.359-10.359-10.359-16.08-10.359-20.717-5.722-20.717 0-20.717 5.721-16.08 10.358-10.359 10.358-4.638 10.358 0 5.721 0 0" fill="#b79480"/>
<path transform="matrix(1,0,0,-1,314.846,81.261508)" d="M0 0C0-3.055-2.477-5.532-5.531-5.532-8.586-5.532-11.063-3.055-11.063 0-11.063 3.055-8.586 5.531-5.531 5.531-2.477 5.531 0 3.055 0 0" fill="#66172d"/>
<path transform="matrix(1,0,0,-1,274.49928,86.62521)" d="M0 0C-.121 .047-12.188 4.859-23.133 15.804-33.764 26.436-37.437 38.146-38.309 41.482-38.575 42.502-39.058 45.055-37.797 46.741-37.087 47.689-35.978 48.194-34.5 48.24-33.08 48.287-31.878 47.661-31.237 46.527-30.581 45.367-30.606 43.866-31.299 42.792-31.877 41.896-32.832 41.439-33.94 41.538-34.998 41.633-35.522 42.138-35.776 42.546-36.436 43.606-35.929 44.998-35.87 45.153L-34.492 44.622-35.181 44.887-34.491 44.625C-34.594 44.349-34.737 43.668-34.521 43.324-34.41 43.147-34.169 43.041-33.808 43.008-33.253 42.957-32.823 43.154-32.54 43.592-32.148 44.198-32.142 45.127-32.522 45.801-32.782 46.26-33.335 46.801-34.454 46.764-35.475 46.732-36.181 46.436-36.614 45.856-37.516 44.651-37.046 42.49-36.88 41.856-36.032 38.611-32.457 27.217-22.088 16.848-11.372 6.131 .421 1.421 .54 1.374Z" fill="#65152d"/>
<path transform="matrix(1,0,0,-1,276.3919,85.17313)" d="M0 0C-.321 .238-7.952 5.969-14.614 18.179-20.7 29.333-20.756 39.537-20.742 40.664-20.732 41.507-20.562 43.583-19.211 44.634-18.441 45.233-17.459 45.394-16.287 45.112-15.14 44.835-14.332 44.079-14.068 43.035-13.801 41.971-14.148 40.784-14.934 40.08-15.599 39.484-16.477 39.328-17.341 39.65-18.179 39.963-18.495 40.498-18.612 40.892-18.912 41.899-18.204 42.902-18.122 43.013L-16.933 42.137-17.527 42.575-16.931 42.14C-17.083 41.928-17.261 41.521-17.197 41.312-17.157 41.181-16.973 41.088-16.825 41.033-16.472 40.901-16.175 40.95-15.918 41.18-15.542 41.517-15.367 42.145-15.5 42.674-15.628 43.182-16.02 43.529-16.633 43.677-17.354 43.851-17.902 43.783-18.305 43.469-19.173 42.794-19.259 41.138-19.265 40.646-19.278 39.559-19.225 29.71-13.317 18.886-6.823 6.983 .802 1.243 .878 1.187Z" fill="#65152d"/>
<path transform="matrix(1,0,0,-1,278.138,82.97092)" d="M0 0C0 0-7.241 16.694-11.063 39.021-14.884 61.348-8.146 70.298 2.917 70.197 13.98 70.097 36.104 56.419 42.541 42.642 49.082 28.641 37.532 16.202 27.858 9.051 16.292 .502 12.27-2.012 8.75-3.621L7.845-4.136C7.845-4.136 5.507-1.571 .339-.78Z" fill="#f1e4d8"/>
<path transform="matrix(1,0,0,-1,278.9906,83.09152)" d="M0 0C3.912-.683 6.205-2.334 7.101-3.11L7.592-2.833C10.96-1.293 14.82 1.078 26.569 9.762 34.821 15.861 47.673 28.219 41.024 42.452 34.791 55.793 13.1 69.484 2.058 69.584 2 69.584 1.939 69.585 1.88 69.585-2.397 69.585-5.767 68.173-8.139 65.386-12.295 60.503-13.323 51.715-11.191 39.266-7.431 17.291-.251 .579-.18 .412ZM6.845-4.943 6.45-4.51C6.43-4.488 4.19-2.122-.624-1.385L-1.024-1.323-1.525-.171C-1.598-.004-8.846 16.86-12.638 39.018-14.846 51.916-13.708 61.108-9.257 66.337-6.594 69.466-2.848 71.052 1.878 71.052 1.942 71.052 2.007 71.052 2.072 71.051 13.499 70.948 35.926 56.83 42.354 43.073 49.444 27.894 36.054 14.948 27.442 8.582 15.621-.155 11.685-2.572 8.232-4.155Z" fill="#66172d"/>
<path transform="matrix(1,0,0,-1,283.2674,84.278629)" d="M0 0C0 0-9.052 17.097-9.453 39.826-9.856 62.555 5.33 57.727 5.33 57.727 5.33 57.727 11.867 57.023 21.22 50.285 30.574 43.546 32.182 32.082 29.567 25.947 26.952 19.813 18.605 7.844 0 0" fill="#b79480"/>
<path transform="matrix(1,0,0,-1,311.92903,52.6994)" d="M0 0C0-10.109-8.195-18.304-18.303-18.304-28.411-18.304-36.607-10.109-36.607 0-36.607 10.109-28.411 18.303-18.303 18.303-8.195 18.303 0 10.109 0 0" fill="#f1e4d8"/>
<path transform="matrix(1,0,0,-1,305.79518,52.6994)" d="M0 0C0-6.721-5.449-12.169-12.169-12.169-18.89-12.169-24.338-6.721-24.338 0-24.338 6.72-18.89 12.168-12.169 12.168-5.449 12.168 0 6.72 0 0" fill="#b79480"/>
<path transform="matrix(1,0,0,-1,300.46467,52.6994)" d="M0 0C0-3.777-3.062-6.839-6.839-6.839-10.616-6.839-13.677-3.777-13.677 0-13.677 3.777-10.616 6.838-6.839 6.838-3.062 6.838 0 3.777 0 0" fill="#66172d"/>
<path transform="matrix(1,0,0,-1,302.8031,118.29611)" d="M0 0C0 0-7.292 22.955-25.771 27.857-25.771 27.857-30.699 28.587-30.247 32.282-29.793 35.979-24.263 35.727-20.643 33.841-17.021 31.956-3.168 23.533 0 0" fill="#65152d"/>
<path transform="matrix(1,0,0,-1,285.4818,205.59792)" d="M0 0-33.847-.193-67.694-.304-135.387-.396-203.081-.305-236.928-.194-270.774 0-236.928 .194-203.081 .305-135.387 .396-67.694 .303-33.847 .192Z" fill="#c49a6c"/>
<path transform="matrix(1,0,0,-1,14.707275,183.07982)" d="M0 0 33.847 .192 67.693 .303 135.387 .396 203.081 .305 236.928 .194 270.774 0 236.928-.194 203.081-.305 135.387-.396 67.693-.304 33.847-.193Z" fill="#c49a6c"/>
<path transform="matrix(1,0,0,-1,82.690677,200.1345)" d="M0 0C-.744 0-1.435 .122-2.074 .366-2.714 .61-3.266 .982-3.73 1.481L-3.243 2.318C-2.731 1.842-2.217 1.497-1.7 1.281-1.183 1.066-.634 .959-.053 .959 .656 .959 1.231 1.1 1.673 1.382 2.114 1.664 2.336 2.071 2.336 2.601 2.336 2.958 2.228 3.233 2.013 3.424 1.798 3.614 1.49 3.77 1.089 3.892 .688 4.013 .209 4.143-.349 4.282-.976 4.455-1.502 4.638-1.926 4.828-2.351 5.019-2.67 5.261-2.885 5.556-3.1 5.851-3.208 6.234-3.208 6.708-3.208 7.298-3.06 7.786-2.763 8.173-2.466 8.56-2.06 8.855-1.543 9.057-1.026 9.259-.447 9.36 .191 9.36 .889 9.36 1.505 9.25 2.039 9.029 2.574 8.808 3.009 8.5 3.346 8.105L2.771 7.304C2.446 7.675 2.059 7.952 1.612 8.132 1.165 8.312 .668 8.401 .122 8.401-.25 8.401-.604 8.353-.941 8.254-1.279 8.156-1.555 7.995-1.769 7.77-1.984 7.544-2.092 7.235-2.092 6.843-2.092 6.52-2.011 6.268-1.848 6.09-1.685 5.91-1.441 5.76-1.116 5.639-.791 5.518-.39 5.387 .087 5.249 .773 5.064 1.371 4.876 1.882 4.686 2.394 4.495 2.789 4.25 3.068 3.95 3.346 3.649 3.486 3.228 3.486 2.686 3.486 1.842 3.167 1.184 2.527 .711 1.888 .237 1.045 0 0 0" fill="#c49a6c"/>
<path transform="matrix(1,0,0,-1,96.704898,199.95972)" d="M0 0-3.364 4.645-5.299 2.835V0H-6.484V12.725H-5.299V4.105L-.157 9.046H1.15L-2.563 5.34 1.29 0Z" fill="#c49a6c"/>
<path transform="matrix(1,0,0,-1,-271.2,422.476)" d="M372.75 231.598H373.935V222.516H372.75ZM372.75 235.241H373.935V233.498H372.75Z" fill="#c49a6c"/>
<path transform="matrix(1,0,0,-1,115.07599,199.95972)" d="M0 0H-1.185V5.04C-1.185 6.102-1.342 6.878-1.655 7.369-1.97 7.859-2.463 8.104-3.137 8.104-3.602 8.104-4.062 7.992-4.514 7.768-4.967 7.543-5.365 7.237-5.708 6.851-6.051 6.465-6.298 6.024-6.449 5.528V0H-7.634V9.046H-6.554V6.985C-6.31 7.423-5.99 7.808-5.595 8.137-5.2 8.467-4.752 8.724-4.253 8.908-3.753 9.093-3.236 9.186-2.702 9.186-2.202 9.186-1.777 9.093-1.429 8.908-1.081 8.724-.801 8.461-.592 8.12-.383 7.779-.232 7.369-.139 6.889-.046 6.41 0 5.875 0 5.287Z" fill="#c49a6c"/>
<path transform="matrix(1,0,0,-1,134.8768,199.95972)" d="M0 0-6.17 6.506C-6.67 7.034-7.07 7.484-7.373 7.857-7.675 8.23-7.89 8.568-8.018 8.873-8.146 9.177-8.209 9.479-8.209 9.777-8.209 10.282-8.073 10.735-7.8 11.137-7.527 11.539-7.155 11.86-6.684 12.102-6.214 12.342-5.688 12.463-5.107 12.463-4.561 12.463-4.07 12.362-3.634 12.162-3.198 11.96-2.853 11.679-2.597 11.318-2.341 10.956-2.213 10.535-2.213 10.053-2.213 9.536-2.362 9.074-2.658 8.666-2.954 8.259-3.338 7.88-3.809 7.53-4.279 7.18-4.799 6.828-5.368 6.472-5.845 6.151-6.283 5.827-6.684 5.501-7.085 5.174-7.402 4.828-7.634 4.461-7.867 4.095-7.983 3.677-7.983 3.208-7.983 2.704-7.837 2.277-7.547 1.928-7.257 1.579-6.888 1.315-6.44 1.137-5.993 .959-5.531 .872-5.055 .872-4.427 .872-3.85 1.014-3.32 1.298-2.792 1.583-2.33 1.978-1.935 2.484-1.54 2.989-1.234 3.567-1.02 4.218-.804 4.869-.697 5.56-.697 6.292H.314C.314 5.409 .175 4.581-.104 3.809-.383 3.036-.77 2.359-1.264 1.778-1.758 1.196-2.338 .74-3.006 .41-3.675 .079-4.398-.087-5.177-.087-5.897-.087-6.56 .053-7.164 .334-7.768 .615-8.247 1.003-8.602 1.496-8.957 1.99-9.133 2.569-9.133 3.235-9.133 3.855-8.985 4.397-8.689 4.862-8.393 5.327-8.009 5.746-7.539 6.119-7.068 6.492-6.571 6.845-6.048 7.178-5.514 7.521-5.04 7.838-4.627 8.131-4.215 8.423-3.893 8.72-3.66 9.023-3.428 9.327-3.312 9.656-3.312 10.011-3.312 10.457-3.48 10.823-3.817 11.11-4.154 11.396-4.584 11.539-5.107 11.539-5.49 11.539-5.833 11.458-6.135 11.298-6.437 11.139-6.676 10.926-6.85 10.663-7.024 10.4-7.111 10.114-7.111 9.804-7.111 9.61-7.065 9.407-6.972 9.195-6.879 8.983-6.699 8.72-6.432 8.405-6.165 8.09-5.781 7.675-5.281 7.16L1.569 0Z" fill="#c49a6c"/>
<path transform="matrix(1,0,0,-1,154.11988,199.95972)" d="M0 0H-1.185V5.04C-1.185 6.056-1.365 6.82-1.726 7.334-2.086 7.848-2.603 8.104-3.277 8.104-3.719 8.104-4.157 7.992-4.592 7.768-5.028 7.543-5.412 7.237-5.743 6.851-6.074 6.465-6.31 6.024-6.449 5.528V0H-7.634V12.725H-6.449V6.985C-6.088 7.655-5.586 8.188-4.941 8.588-4.296 8.986-3.608 9.186-2.875 9.186-2.353 9.186-1.909 9.093-1.542 8.908-1.176 8.724-.88 8.455-.653 8.103-.427 7.75-.261 7.339-.157 6.872-.052 6.404 0 5.875 0 5.287Z" fill="#c49a6c"/>
<path transform="matrix(1,0,0,-1,164.09018,198.05301)" d="M0 0C.128 .161 .227 .316 .297 .466 .366 .615 .401 .748 .401 .863V2.176C.006 2.326-.404 2.441-.828 2.521-1.252 2.602-1.679 2.643-2.108 2.643-2.958 2.643-3.643 2.475-4.166 2.142-4.688 1.808-4.95 1.353-4.95 .777-4.95 .443-4.863 .129-4.688-.165-4.515-.458-4.259-.7-3.922-.89-3.584-1.08-3.19-1.175-2.736-1.175-2.167-1.175-1.636-1.066-1.142-.847-.647-.628-.268-.346 0 0M-6.083 .69C-6.083 1.255-5.92 1.744-5.595 2.154-5.27 2.563-4.819 2.881-4.245 3.107-3.669 3.332-3.004 3.444-2.248 3.444-1.807 3.444-1.348 3.409-.872 3.339-.395 3.271 .029 3.165 .401 3.026V3.791C.401 4.553 .175 5.159-.279 5.61-.732 6.06-1.359 6.286-2.161 6.286-2.649 6.286-3.129 6.195-3.599 6.016-4.07 5.835-4.561 5.571-5.072 5.223L-5.525 6.059C-4.933 6.465-4.352 6.77-3.782 6.974-3.213 7.177-2.632 7.279-2.039 7.279-.923 7.279-.041 6.961 .61 6.327 1.261 5.691 1.586 4.814 1.586 3.693V-.48C1.586-.643 1.621-.761 1.691-.835 1.761-.911 1.871-.955 2.022-.966V-1.907C1.895-1.918 1.784-1.93 1.691-1.942 1.598-1.954 1.528-1.954 1.482-1.942 1.191-1.93 .97-1.837 .819-1.663 .668-1.488 .587-1.303 .575-1.105L.558-.443C.151-.966-.377-1.37-1.028-1.654-1.679-1.938-2.342-2.082-3.015-2.082-3.596-2.082-4.123-1.957-4.593-1.709-5.063-1.461-5.43-1.126-5.691-.704-5.952-.283-6.083 .182-6.083 .69" fill="#c49a6c"/>
<path transform="matrix(1,0,0,-1,-271.2,422.476)" d="M441.53 231.598H442.715V222.516H441.53ZM441.53 235.241H442.715V233.498H441.53Z" fill="#c49a6c"/>
<path transform="matrix(1,0,0,-1,180.7537,191.92452)" d="M0 0C-.79-.023-1.484-.244-2.083-.662-2.682-1.081-3.103-1.655-3.347-2.388V-8.035H-4.532V1.011H-3.417V-1.133C-3.103-.494-2.687 .023-2.17 .419-1.653 .813-1.104 1.035-.522 1.081-.407 1.092-.305 1.098-.218 1.098-.131 1.098-.058 1.092 0 1.081Z" fill="#c49a6c"/>
<path transform="matrix(1,0,0,-1,194.5062,200.1345)" d="M0 0C-.662 0-1.27 .125-1.821 .373-2.374 .621-2.856 .965-3.268 1.404-3.681 1.844-4 2.346-4.227 2.913-4.453 3.479-4.566 4.079-4.566 4.715-4.566 5.57-4.375 6.35-3.991 7.055-3.608 7.76-3.073 8.32-2.388 8.736-1.702 9.152-.912 9.36-.017 9.36 .831 9.36 1.58 9.166 2.231 8.776 2.882 8.387 3.364 7.861 3.678 7.199L2.528 6.833C2.272 7.298 1.915 7.661 1.456 7.923 .997 8.184 .489 8.314-.069 8.314-.674 8.314-1.226 8.159-1.725 7.848-2.225 7.535-2.623 7.109-2.919 6.567-3.216 6.025-3.364 5.407-3.364 4.715-3.364 4.034-3.213 3.417-2.911 2.863-2.608 2.31-2.208 1.868-1.708 1.54-1.208 1.21-.656 1.046-.052 1.046 .343 1.046 .724 1.116 1.09 1.255 1.456 1.395 1.775 1.583 2.048 1.822 2.321 2.06 2.504 2.318 2.597 2.597L3.766 2.249C3.603 1.819 3.333 1.432 2.955 1.09 2.577 .747 2.135 .479 1.63 .288 1.125 .096 .582 0 0 0" fill="#c49a6c"/>
<path transform="matrix(1,0,0,-1,202.28058,187.2351)" d="M0 0H1.185V-10.731C1.185-11.188 1.266-11.485 1.429-11.626 1.592-11.766 1.789-11.836 2.021-11.836 2.23-11.836 2.44-11.813 2.649-11.766 2.858-11.72 3.039-11.674 3.19-11.627L3.399-12.585C3.178-12.679 2.907-12.754 2.588-12.812 2.269-12.87 1.992-12.899 1.76-12.899 1.226-12.899 .799-12.742 .479-12.426 .159-12.111 0-11.678 0-11.129Z" fill="#c49a6c"/>
<path transform="matrix(1,0,0,-1,-271.2,422.476)" d="M480.261 231.598H481.44599V222.516H480.261ZM480.261 235.241H481.44599V233.498H480.261Z" fill="#c49a6c"/>
<path transform="matrix(1,0,0,-1,222.5867,199.95972)" d="M0 0H-1.185V5.04C-1.185 6.102-1.342 6.878-1.655 7.369-1.97 7.859-2.463 8.104-3.137 8.104-3.602 8.104-4.062 7.992-4.514 7.768-4.967 7.543-5.365 7.237-5.708 6.851-6.051 6.465-6.298 6.024-6.449 5.528V0H-7.634V9.046H-6.554V6.985C-6.31 7.423-5.99 7.808-5.595 8.137-5.2 8.467-4.752 8.724-4.253 8.908-3.753 9.093-3.236 9.186-2.702 9.186-2.202 9.186-1.777 9.093-1.429 8.908-1.081 8.724-.801 8.461-.592 8.12-.383 7.779-.232 7.369-.139 6.889-.046 6.41 0 5.875 0 5.287Z" fill="#c49a6c"/>
<path transform="matrix(1,0,0,-1,-271.2,422.476)" d="M498.406 231.598H499.591V222.516H498.406ZM498.406 235.241H499.591V233.498H498.406Z" fill="#c49a6c"/>
<path transform="matrix(1,0,0,-1,237.03598,200.1345)" d="M0 0C-.662 0-1.27 .125-1.821 .373-2.374 .621-2.856 .965-3.268 1.404-3.681 1.844-4 2.346-4.227 2.913-4.454 3.479-4.566 4.079-4.566 4.715-4.566 5.57-4.375 6.35-3.991 7.055-3.608 7.76-3.073 8.32-2.388 8.736-1.702 9.152-.912 9.36-.018 9.36 .831 9.36 1.58 9.166 2.231 8.776 2.882 8.387 3.364 7.861 3.678 7.199L2.528 6.833C2.272 7.298 1.915 7.661 1.456 7.923 .997 8.184 .488 8.314-.069 8.314-.674 8.314-1.226 8.159-1.726 7.848-2.225 7.535-2.623 7.109-2.919 6.567-3.216 6.025-3.364 5.407-3.364 4.715-3.364 4.034-3.213 3.417-2.911 2.863-2.608 2.31-2.208 1.868-1.708 1.54-1.208 1.21-.656 1.046-.052 1.046 .343 1.046 .724 1.116 1.09 1.255 1.456 1.395 1.775 1.583 2.048 1.822 2.321 2.06 2.504 2.318 2.597 2.597L3.765 2.249C3.603 1.819 3.332 1.432 2.955 1.09 2.577 .747 2.135 .479 1.63 .288 1.125 .096 .582 0 0 0" fill="#c49a6c"/>
<path transform="matrix(1,0,0,-1,-271.2,422.476)" d="M230.191 50.422H71.22899V58.196H230.191Z" fill="#66172d"/>
<path transform="matrix(1,0,0,-1,-271.2,422.476)" d="M410.347 50.422H251.38599V58.196H410.347Z" fill="#c49a6c"/>
<path transform="matrix(1,0,0,-1,-271.2,422.476)" d="M590.504 50.422H431.54203V58.196H590.504Z" fill="#b79480"/>
<path transform="matrix(1,0,0,-1,-271.2,422.476)" d="M770.661 50.422H611.699V58.196H770.661Z" fill="#f1e4d8"/>
</g>
</g>
</g>
</svg>
