<svg xmlns="http://www.w3.org/2000/svg" xmlns:xlink="http://www.w3.org/1999/xlink" xmlns:inkscape="http://www.inkscape.org/namespaces/inkscape" version="1.1" width="353.3" height="174.20001" viewBox="0 0 353.3 174.20001">
<defs>
<clipPath id="clip_1">
<path transform="matrix(1,0,0,-1,-271.2,422.476)" d="M271.2 248.276H624.5V422.476H271.2Z" clip-rule="evenodd"/>
</clipPath>
<clipPath id="clip_2">
<path transform="matrix(1,0,0,-1,-271.2,422.476)" d="M0 595.276H841.89V0H0Z"/>
</clipPath>
</defs>
<g>
<g clip-path="url(#clip_1)">
<g clip-path="url(#clip_2)">
<path transform="matrix(1,0,0,-1,19.820099,93.9758)" d="M0 0C-4.261 0-7.771 3.509-7.771 7.771-7.771 12.031-4.261 15.667 0 15.667 4.261 15.667 7.645 12.031 7.645 7.771 7.645 3.509 4.261 0 0 0" fill="#66172d"/>
<path transform="matrix(1,0,0,-1,33.857698,170.92942)" d="M0 0C-13.161 0-20.054 6.517-20.054 19.927V67.679H-16.544C-12.659 67.679-8.648 64.671-8.648 58.78V21.557C-8.648 13.159-4.512 10.528 1.754 10.528H6.642V6.768C6.642 2.506 4.011 0 0 0" fill="#66172d"/>
<path transform="matrix(1,0,0,-1,71.83188,170.80442)" d="M0 0C-13.16 0-20.304 6.392-20.304 19.928V90.74H-16.795C-12.157 90.74-8.773 87.858-8.773 81.967V21.306C-8.773 12.909-4.512 10.528 1.755 10.528H9.149V6.768C9.149 2.131 6.142 0 0 0" fill="#66172d"/>
<path transform="matrix(1,0,0,-1,117.07648,112.90112)" d="M0 0C-10.778 0-17.922-8.773-17.922-22.685-17.922-38.101-10.402-47.876 2.757-47.876 14.037-47.876 20.178-38.352 20.178-25.192 20.178-8.648 13.16 0 0 0M1.629-58.655C-16.168-58.655-29.453-44.994-29.453-25.066-29.453-2.883-17.296 10.778 1.629 10.778 19.426 10.778 31.709-2.632 31.709-22.56 31.709-45.12 19.803-58.655 1.629-58.655" fill="#66172d"/>
<path transform="matrix(1,0,0,-1,214.96219,170.3034)" d="M0 0C-4.638 0-7.144 2.381-7.144 7.395V38.226C-7.144 52.139-12.283 57.528-24.189 57.528-34.215 57.528-39.98 51.888-39.98 38.226V0H-44.243C-48.378 0-51.261 2.507-51.261 7.77V38.477C-51.261 57.277-39.98 68.306-22.811 68.306-6.016 68.306 4.136 58.656 4.136 38.603V0Z" fill="#66172d"/>
<path transform="matrix(1,0,0,-1,274.36848,138.97)" d="M0 0H-9.149C-22.56 0-28.7-4.136-28.7-11.53-28.7-17.421-22.936-22.059-14.288-22.059-4.135-22.059 0-18.048 0-8.397ZM-14.789-32.586C-28.45-32.586-40.357-24.69-40.357-12.784-40.357 1.629-29.202 9.524-9.149 9.524H-.125V12.658C-.125 22.434-5.013 26.445-15.917 26.445-25.943 26.445-33.338 22.685-37.224 17.295H-37.85V22.81C-37.85 28.951-29.829 36.973-14.789 36.973 2.257 36.973 11.281 28.074 11.281 11.781V-9.274C11.281-22.811 4.011-32.586-14.789-32.586" fill="#66172d"/>
<path transform="matrix(1,0,0,-1,295.5365,96.95041)" d="M0 0C0 0 14.381-9.956 30.071-7.945 45.759-5.934 42.138 11.465 42.138 11.465 42.138 11.465 38.016 30.473 24.137 37.814 24.137 37.814 22.075 31.479 8.649 21.723 2.117 16.977-2.368 14.037-5.252 12.269-8.295 10.404-9.554 9.843-9.554 9.843-9.554 9.843-5.732 7.895 0 0" fill="#f1e4d8"/>
<path transform="matrix(1,0,0,-1,296.0531,96.41431)" d="M0 0C1.297-.862 14.914-9.616 29.461-7.753 33.565-7.227 36.649-5.553 38.627-2.777 42.527 2.697 40.92 10.699 40.904 10.779 40.865 10.956 36.831 28.892 23.974 36.247 22.98 34.215 19.458 28.51 8.564 20.593 3.091 16.618-1.602 13.426-5.385 11.107-6.843 10.213-7.897 9.615-8.607 9.231-7.047 8.099-3.976 5.457 0 0M25.227-9.487C11.299-9.487-.394-1.514-.935-1.14L-1.037-1.068-1.111-.967C-6.634 6.641-10.369 8.636-10.406 8.655L-11.754 9.355-10.369 9.978C-10.357 9.983-9.098 10.553-6.152 12.358-3.573 13.939 .923 16.856 7.701 21.781 20.696 31.223 22.903 37.447 22.924 37.509L23.199 38.327 23.963 37.927C37.983 30.511 42.167 11.874 42.339 11.084 42.414 10.725 44.09 2.363 39.822-3.628 37.597-6.751 34.174-8.628 29.648-9.208 28.157-9.4 26.679-9.487 25.227-9.487" fill="#66172d"/>
<path transform="matrix(1,0,0,-1,291.0111,85.6868)" d="M0 0C0 0 4.726-7.845 16.192-12.571 27.656-17.298 34.897-15.086 37.714-12.269 40.529-9.453 41.334-4.224 38.117 3.721 34.897 11.667 29.366 17.902 25.244 21.522L11.565 14.08-.805 1.71Z" fill="#b79480"/>
<path transform="matrix(1,0,0,-1,324.09797,81.261508)" d="M0 0C0-8.165-6.619-14.784-14.783-14.784-22.948-14.784-29.566-8.165-29.566 0-29.566 8.165-22.948 14.784-14.783 14.784-6.619 14.784 0 8.165 0 0" fill="#f1e4d8"/>
<path transform="matrix(1,0,0,-1,319.6737,81.261508)" d="M0 0C0-5.722-4.638-10.359-10.359-10.359-16.08-10.359-20.717-5.722-20.717 0-20.717 5.721-16.08 10.358-10.359 10.358-4.638 10.358 0 5.721 0 0" fill="#b79480"/>
<path transform="matrix(1,0,0,-1,314.846,81.261508)" d="M0 0C0-3.055-2.477-5.532-5.531-5.532-8.586-5.532-11.063-3.055-11.063 0-11.063 3.055-8.586 5.531-5.531 5.531-2.477 5.531 0 3.055 0 0" fill="#66172d"/>
<path transform="matrix(1,0,0,-1,274.49928,86.62521)" d="M0 0C-.121 .047-12.188 4.859-23.133 15.804-33.764 26.436-37.437 38.146-38.309 41.482-38.575 42.502-39.058 45.055-37.797 46.741-37.087 47.689-35.978 48.194-34.5 48.24-33.08 48.287-31.878 47.661-31.237 46.527-30.581 45.367-30.606 43.866-31.299 42.792-31.877 41.896-32.832 41.439-33.94 41.538-34.998 41.633-35.522 42.138-35.776 42.546-36.436 43.606-35.929 44.998-35.87 45.153L-34.492 44.622-35.181 44.887-34.491 44.625C-34.594 44.349-34.737 43.668-34.521 43.324-34.41 43.147-34.169 43.041-33.808 43.008-33.253 42.957-32.823 43.154-32.54 43.592-32.148 44.198-32.142 45.127-32.522 45.801-32.782 46.26-33.335 46.801-34.454 46.764-35.475 46.732-36.181 46.436-36.614 45.856-37.516 44.651-37.046 42.49-36.88 41.856-36.032 38.611-32.457 27.217-22.088 16.848-11.372 6.131 .421 1.421 .54 1.374Z" fill="#65152d"/>
<path transform="matrix(1,0,0,-1,276.3919,85.17313)" d="M0 0C-.321 .238-7.952 5.969-14.614 18.179-20.7 29.333-20.756 39.537-20.742 40.664-20.732 41.507-20.562 43.583-19.211 44.634-18.441 45.233-17.459 45.394-16.287 45.112-15.14 44.835-14.332 44.079-14.068 43.035-13.801 41.971-14.148 40.784-14.934 40.08-15.599 39.484-16.477 39.328-17.341 39.65-18.179 39.963-18.495 40.498-18.612 40.892-18.912 41.899-18.204 42.902-18.122 43.013L-16.933 42.137-17.527 42.575-16.931 42.14C-17.083 41.928-17.261 41.521-17.197 41.312-17.157 41.181-16.973 41.088-16.825 41.033-16.472 40.901-16.175 40.95-15.918 41.18-15.542 41.517-15.367 42.145-15.5 42.674-15.628 43.182-16.02 43.529-16.633 43.677-17.354 43.851-17.902 43.783-18.305 43.469-19.173 42.794-19.259 41.138-19.265 40.646-19.278 39.559-19.225 29.71-13.317 18.886-6.823 6.983 .802 1.243 .878 1.187Z" fill="#65152d"/>
<path transform="matrix(1,0,0,-1,278.138,82.97092)" d="M0 0C0 0-7.241 16.694-11.063 39.021-14.884 61.348-8.146 70.298 2.917 70.197 13.98 70.097 36.104 56.419 42.541 42.642 49.082 28.641 37.532 16.202 27.858 9.051 16.292 .502 12.27-2.012 8.75-3.621L7.845-4.136C7.845-4.136 5.507-1.571 .339-.78Z" fill="#f1e4d8"/>
<path transform="matrix(1,0,0,-1,278.9906,83.09152)" d="M0 0C3.912-.683 6.205-2.334 7.101-3.11L7.592-2.833C10.96-1.293 14.82 1.078 26.569 9.762 34.821 15.861 47.673 28.219 41.024 42.452 34.791 55.793 13.1 69.484 2.058 69.584 2 69.584 1.939 69.585 1.88 69.585-2.397 69.585-5.767 68.173-8.139 65.386-12.295 60.503-13.323 51.715-11.191 39.266-7.431 17.291-.251 .579-.18 .412ZM6.845-4.943 6.45-4.51C6.43-4.488 4.19-2.122-.624-1.385L-1.024-1.323-1.525-.171C-1.598-.004-8.846 16.86-12.638 39.018-14.846 51.916-13.708 61.108-9.257 66.337-6.594 69.466-2.848 71.052 1.878 71.052 1.942 71.052 2.007 71.052 2.072 71.051 13.499 70.948 35.926 56.83 42.354 43.073 49.444 27.894 36.054 14.948 27.442 8.582 15.621-.155 11.685-2.572 8.232-4.155Z" fill="#66172d"/>
<path transform="matrix(1,0,0,-1,283.2674,84.278629)" d="M0 0C0 0-9.052 17.097-9.453 39.826-9.856 62.555 5.33 57.727 5.33 57.727 5.33 57.727 11.867 57.023 21.22 50.285 30.574 43.546 32.182 32.082 29.567 25.947 26.952 19.813 18.605 7.844 0 0" fill="#b79480"/>
<path transform="matrix(1,0,0,-1,311.92903,52.6994)" d="M0 0C0-10.109-8.195-18.304-18.303-18.304-28.411-18.304-36.607-10.109-36.607 0-36.607 10.109-28.411 18.303-18.303 18.303-8.195 18.303 0 10.109 0 0" fill="#f1e4d8"/>
<path transform="matrix(1,0,0,-1,305.79518,52.6994)" d="M0 0C0-6.721-5.449-12.169-12.169-12.169-18.89-12.169-24.338-6.721-24.338 0-24.338 6.72-18.89 12.168-12.169 12.168-5.449 12.168 0 6.72 0 0" fill="#b79480"/>
<path transform="matrix(1,0,0,-1,300.46467,52.6994)" d="M0 0C0-3.777-3.062-6.839-6.839-6.839-10.616-6.839-13.677-3.777-13.677 0-13.677 3.777-10.616 6.838-6.839 6.838-3.062 6.838 0 3.777 0 0" fill="#66172d"/>
<path transform="matrix(1,0,0,-1,302.8031,118.29611)" d="M0 0C0 0-7.292 22.955-25.771 27.857-25.771 27.857-30.699 28.587-30.247 32.282-29.793 35.979-24.263 35.727-20.643 33.841-17.021 31.956-3.168 23.533 0 0" fill="#65152d"/>

</g>
</g>
</g>
</svg>
